<?xml version="1.0" standalone="no"?>
<!DOCTYPE svg PUBLIC "-//W3C//DTD SVG 20010904//EN"
 "http://www.w3.org/TR/2001/REC-SVG-20010904/DTD/svg10.dtd">
<svg version="1.0" xmlns="http://www.w3.org/2000/svg"
 width="848.000000pt" height="852.000000pt" viewBox="0 0 848.000000 852.000000"
 preserveAspectRatio="xMidYMid meet">

<g transform="translate(0.000000,852.000000) scale(0.100000,-0.100000)"
fill="#000000" stroke="none">
<path d="M3960 8383 c-331 -25 -636 -84 -957 -185 l-133 -41 0 -841 0 -841
-215 -215 -215 -215 0 -198 0 -198 30 -26 c37 -31 60 -73 60 -110 0 -26 2 -25
60 32 l60 59 0 220 0 221 77 77 c76 77 77 77 58 98 -19 21 -18 22 135 175
l154 154 21 -19 21 -19 232 232 232 232 0 148 c0 124 -2 147 -15 147 -13 0
-15 25 -15 165 0 140 2 165 15 165 12 0 15 19 15 107 l0 108 287 287 288 288
-75 -2 c-41 -1 -95 -3 -120 -5z"/>
<path d="M3923 8098 l-293 -293 0 -103 c0 -84 3 -102 15 -102 13 0 15 -25 15
-165 0 -140 -2 -165 -15 -165 -13 0 -15 -24 -15 -152 l0 -153 -242 -242 -243
-243 28 -27 27 -28 510 510 510 510 -2 473 -3 472 -292 -292z"/>
<path d="M4270 8302 l0 -87 305 -305 305 -305 0 -742 c0 -409 3 -743 8 -743 4
0 94 -18 200 -40 106 -22 195 -40 197 -40 3 0 5 20 5 45 0 25 3 45 7 45 4 0
35 -27 68 -60 42 -42 71 -61 95 -66 34 -6 31 -3 -67 97 l-103 104 0 100 0 100
233 -232 c179 -178 239 -233 265 -238 l32 -7 0 424 0 423 -275 275 -275 275 0
462 0 462 -52 16 c-218 62 -665 125 -890 125 l-58 0 0 -88z m1262 -1339 l228
-228 0 -92 c0 -51 -3 -93 -7 -93 -5 0 -110 102 -235 227 l-228 228 0 92 c0 51
3 93 7 93 5 0 110 -102 235 -227z m228 -590 c0 -51 -3 -93 -7 -93 -5 0 -110
102 -235 227 l-228 228 0 100 0 100 235 -235 235 -235 0 -92z m-228 60 l228
-228 0 -92 c0 -51 -3 -93 -7 -93 -5 0 -110 102 -235 227 l-228 228 0 92 c0 51
3 93 7 93 5 0 110 -102 235 -227z"/>
<path d="M5470 7782 l0 -407 175 -175 175 -175 0 517 0 516 -67 27 c-76 30
-274 105 -279 105 -2 0 -4 -183 -4 -408z"/>
<path d="M4270 8064 l0 -90 240 -239 c239 -238 240 -240 240 -282 0 -36 3 -43
20 -43 19 0 20 -7 20 -165 0 -158 -1 -165 -20 -165 -18 0 -20 -7 -20 -63 l0
-62 -185 -185 -185 -185 0 -180 0 -180 225 -46 225 -46 0 731 0 731 -280 280
-280 280 0 -91z"/>
<path d="M2573 8033 l-123 -56 0 -846 0 -846 135 135 135 135 0 767 c0 608 -3
768 -12 767 -7 0 -68 -25 -135 -56z"/>
<path d="M5860 6980 l0 -1058 69 -16 c39 -9 77 -16 85 -16 14 0 16 29 16 230
l0 230 -25 0 -25 0 0 275 0 275 25 0 25 0 -2 531 -3 530 -82 39 -83 39 0
-1059z"/>
<path d="M2323 7909 l-73 -41 0 -1082 0 -1082 28 -27 c22 -21 38 -27 75 -27
l47 0 0 1150 c0 633 -1 1150 -2 1150 -2 -1 -36 -19 -75 -41z"/>
<path d="M6070 7415 c0 -451 2 -515 15 -515 13 0 15 -37 15 -275 0 -239 -2
-275 -15 -275 -13 0 -15 -31 -13 -237 l3 -237 83 -17 82 -16 -2 1001 -3 1001
-75 43 c-41 23 -78 42 -82 42 -5 0 -8 -232 -8 -515z"/>
<path d="M4270 7083 c0 -748 2 -831 16 -837 44 -17 44 -15 44 177 l0 182 190
190 190 190 0 47 c0 41 -3 48 -20 48 -19 0 -20 7 -20 165 0 158 1 165 20 165
16 0 20 7 20 33 0 29 -23 55 -220 252 l-220 220 0 -832z"/>
<path d="M2170 7822 c-319 -201 -585 -414 -805 -643 -122 -127 -315 -355 -315
-372 0 -3 47 -42 105 -87 58 -45 156 -125 216 -178 94 -83 118 -98 156 -104
79 -12 133 -68 133 -139 0 -26 8 -43 30 -64 l30 -29 0 505 0 504 240 240 241
241 -3 71 -3 71 -25 -16z"/>
<path d="M6280 7632 l0 -177 460 -460 460 -460 0 -270 0 -270 -110 -110 -110
-110 0 -264 0 -265 140 -141 c141 -143 153 -162 130 -204 -5 -10 -36 -28 -70
-41 l-60 -22 0 -120 c0 -105 2 -119 16 -114 9 3 20 6 25 6 5 0 9 30 9 66 l0
67 69 -5 c39 -3 81 -13 98 -23 27 -16 32 -16 61 -1 23 12 31 24 34 48 l3 33
68 -1 c53 0 73 -5 97 -22 l30 -23 0 328 0 328 -85 85 -85 85 0 576 0 577 -71
93 c-223 292 -499 565 -794 784 -115 86 -294 205 -307 205 -4 0 -8 -80 -8
-178z"/>
<path d="M1978 7413 l-218 -218 0 -511 0 -512 78 -76 c73 -72 79 -76 123 -76
28 0 64 -9 92 -24 l47 -23 0 206 0 206 -130 130 -130 130 0 240 0 240 180 180
181 181 -3 72 -3 72 -217 -217z"/>
<path d="M2042 7257 l-152 -152 0 -220 0 -220 130 -130 130 -130 0 -306 0
-306 25 -23 25 -23 0 831 c0 458 -1 832 -3 832 -1 0 -71 -69 -155 -153z m33
-181 c34 -34 41 -71 21 -113 -19 -39 -67 -64 -109 -56 -39 8 -77 57 -77 100 0
80 109 125 165 69z m0 -220 c34 -34 41 -71 21 -113 -19 -39 -67 -64 -109 -56
-39 8 -77 57 -77 100 0 80 109 125 165 69z"/>
<path d="M1982 7060 c-43 -18 -48 -78 -9 -105 29 -20 53 -19 77 5 28 28 25 64
-6 89 -30 23 -30 23 -62 11z"/>
<path d="M1982 6840 c-43 -18 -48 -78 -9 -105 29 -20 53 -19 77 5 28 28 25 64
-6 89 -30 23 -30 23 -62 11z"/>
<path d="M6280 7345 c0 -39 7 -47 300 -340 l300 -300 0 -681 0 -680 30 -29 30
-29 0 255 0 254 110 110 110 110 0 245 0 245 -440 440 -440 440 0 -40z m817
-870 c34 -24 47 -76 29 -118 -17 -43 -41 -57 -94 -57 -33 0 -45 6 -66 31 -17
19 -26 43 -26 64 0 21 9 45 26 64 21 26 33 31 68 31 23 0 51 -7 63 -15z m0
-270 c34 -24 47 -76 29 -118 -17 -43 -41 -57 -94 -57 -82 0 -124 106 -66 164
31 30 95 36 131 11z"/>
<path d="M6994 6435 c-18 -18 -23 -31 -19 -48 8 -25 41 -57 60 -57 24 0 65 41
65 65 0 24 -42 65 -67 65 -8 0 -25 -11 -39 -25z"/>
<path d="M6994 6165 c-18 -18 -23 -31 -19 -48 8 -25 41 -57 60 -57 24 0 65 41
65 65 0 24 -42 65 -67 65 -8 0 -25 -11 -39 -25z"/>
<path d="M3726 6881 c-489 -489 -490 -490 -471 -511 19 -21 18 -21 -130 -170
-83 -83 -155 -150 -161 -150 -6 0 -17 7 -24 15 -12 14 -16 13 -42 -11 -27 -27
-28 -31 -28 -128 l0 -101 293 293 c160 160 300 292 309 292 10 0 181 -34 380
-75 199 -41 363 -73 365 -72 2 2 2 252 1 555 l-3 552 -489 -489z"/>
<path d="M6282 6535 l3 -700 69 -17 69 -17 209 -208 208 -208 0 645 0 645
-280 280 -280 280 2 -700z"/>
<path d="M478 6822 c-37 -75 -105 -200 -151 -277 l-85 -140 36 -3 c20 -2 41 2
48 10 36 36 304 514 304 542 0 3 -19 6 -42 6 l-43 -1 -67 -137z"/>
<path d="M603 6819 c-40 -79 -102 -193 -139 -254 -37 -60 -76 -126 -87 -147
l-21 -36 99 -104 c675 -702 1253 -1604 1625 -2538 260 -652 440 -1366 516
-2050 l16 -145 49 -76 c27 -41 49 -86 49 -100 0 -31 -46 -99 -66 -99 -12 0
-15 -6 -11 -22 14 -56 19 -569 8 -807 -7 -139 -10 -255 -8 -257 2 -2 98 48
213 112 115 63 348 185 518 270 l309 155 3 47 c1 26 2 52 2 57 0 6 -2 83 -5
173 l-4 163 35 35 c31 31 39 34 90 34 l56 0 0 34 c0 31 -3 34 -38 43 -34 9
-42 7 -66 -14 -15 -12 -35 -23 -45 -23 -28 0 -222 -239 -337 -415 l-59 -90 -3
388 -2 387 -78 0 -78 0 -37 -63 c-26 -45 -37 -76 -37 -103 0 -33 -7 -46 -35
-74 -19 -18 -39 -47 -45 -64 -8 -24 -8 -28 2 -18 6 6 30 12 53 12 33 0 47 -6
73 -33 l32 -33 0 -220 0 -220 -33 -32 c-47 -45 -100 -45 -145 1 l-32 33 0 221
c0 184 2 223 15 233 9 7 15 29 15 51 l0 39 -80 0 c-74 0 -81 2 -115 31 -34 30
-35 33 -35 101 0 60 -4 74 -25 100 -36 42 -36 124 0 166 25 30 25 31 25 225
l0 195 35 31 c33 29 41 31 115 31 l78 0 4 73 c4 60 -24 303 -36 314 -6 6 -94
-136 -113 -183 -10 -24 -21 -44 -25 -44 -12 0 -10 828 1 835 9 5 3 32 -45 203
l-15 53 -18 -23 c-43 -54 -87 -139 -122 -238 l-38 -105 0 458 c0 343 -3 466
-12 492 -7 19 -16 35 -21 35 -4 0 -22 -21 -39 -47 -38 -54 -167 -193 -181
-193 -5 0 -8 166 -8 404 l2 403 -25 49 -24 48 -18 -30 c-70 -113 -168 -254
-194 -279 l-31 -29 0 406 1 406 -48 86 c-26 47 -50 86 -53 86 -3 0 -25 -35
-50 -78 -24 -42 -80 -131 -125 -197 l-80 -119 -5 411 -5 411 -65 96 c-35 53
-67 96 -70 96 -3 0 -30 -49 -61 -108 -64 -123 -190 -331 -201 -332 -5 0 -8
181 -8 403 l0 403 -80 98 c-93 115 -294 345 -406 465 l-79 83 -72 -143z"/>
<path d="M7670 5745 l0 -650 145 145 145 145 0 199 0 199 -46 116 c-48 120
-175 386 -219 456 l-24 40 -1 -650z"/>
<path d="M1494 6345 c-33 -33 -122 -65 -182 -65 l-32 0 0 -325 c0 -179 2 -325
4 -325 8 0 117 192 176 310 71 142 126 279 136 336 4 31 1 45 -15 65 -30 39
-52 40 -87 4z"/>
<path d="M302 6311 c29 -33 98 -108 152 -168 309 -337 639 -777 888 -1183 569
-929 947 -1974 1098 -3035 19 -137 24 -155 56 -203 19 -29 39 -64 44 -78 16
-41 30 -28 24 23 -22 181 -69 487 -99 643 -290 1488 -995 2851 -2051 3963 -84
88 -95 97 -129 97 l-37 0 54 -59z"/>
<path d="M2997 5872 c-257 -257 -467 -470 -467 -474 0 -3 18 -21 41 -39 l41
-32 421 421 c232 232 427 422 432 422 6 0 383 -373 840 -830 774 -774 832
-830 870 -835 22 -4 59 -5 83 -3 l42 3 -917 918 -918 917 -468 -468z"/>
<path d="M3590 6266 l75 -73 230 -47 230 -47 805 -805 806 -805 77 3 77 3
-854 854 -854 854 -329 68 c-180 38 -330 69 -333 69 -3 0 29 -33 70 -74z"/>
<path d="M4319 6117 l73 -75 162 -32 c88 -17 197 -40 240 -50 l79 -18 731
-731 731 -731 40 35 40 34 -751 751 -751 752 -309 64 c-170 35 -320 66 -334
69 -20 5 -9 -10 49 -68z"/>
<path d="M2767 6102 l-67 -68 0 -189 0 -189 60 59 60 59 0 135 0 135 35 36 35
36 -28 27 -28 27 -67 -68z"/>
<path d="M3052 5717 c-401 -401 -412 -414 -394 -430 18 -17 20 -17 26 -1 5 13
15 16 52 11 82 -9 135 -65 142 -152 4 -53 7 -57 61 -103 86 -73 138 -112 150
-112 6 0 11 11 11 25 0 22 4 25 33 25 68 0 147 -68 147 -127 0 -21 15 -31 116
-79 63 -30 117 -54 120 -54 2 0 4 11 4 25 0 21 5 25 30 25 69 0 140 -58 140
-115 0 -16 39 -38 213 -116 l212 -96 3 32 c3 32 4 33 45 28 77 -10 119 -43
142 -110 13 -38 14 -39 181 -104 93 -37 184 -70 203 -74 33 -7 34 -7 29 25 -3
21 0 34 9 37 10 4 13 62 13 297 l0 291 -633 633 c-347 347 -634 632 -637 632
-3 0 -191 -186 -418 -413z"/>
<path d="M5048 5968 l73 -75 237 -48 237 -48 532 -530 532 -531 55 19 c31 11
56 22 56 25 0 3 -251 256 -557 562 l-558 558 -320 65 c-176 36 -329 68 -340
71 -11 4 11 -26 53 -68z"/>
<path d="M1958 5901 c-32 -108 -138 -191 -243 -191 l-35 0 0 -337 0 -338 30
45 c179 265 337 605 356 764 6 46 3 55 -17 78 -13 14 -35 29 -49 32 -23 5 -26
1 -42 -53z"/>
<path d="M5781 5815 l74 -74 235 -47 235 -47 380 -377 380 -378 59 20 58 20
-407 408 -407 408 -157 32 c-86 18 -239 49 -340 70 l-184 39 74 -74z"/>
<path d="M426 5601 c-21 -66 -50 -173 -67 -238 l-29 -118 0 -405 0 -405 265
-265 265 -265 0 75 0 75 -90 90 -90 90 0 640 0 640 -103 103 c-56 56 -105 102
-108 102 -3 0 -22 -54 -43 -119z"/>
<path d="M8001 5510 l-1 -145 -165 -165 -165 -165 0 -547 0 -548 140 0 140 0
0 25 c0 18 -5 25 -20 25 -19 0 -20 7 -20 140 0 133 1 140 20 140 16 0 20 7 20
38 0 35 9 46 125 162 l126 125 -6 80 c-24 314 -88 657 -169 905 l-24 75 -1
-145z"/>
<path d="M2350 5533 c-46 -229 -137 -384 -243 -414 -23 -7 -45 -15 -50 -19 -4
-3 -6 -152 -5 -331 l3 -324 74 110 c120 180 230 426 285 636 27 107 56 267 56
314 0 41 -42 85 -81 85 -26 0 -28 -4 -39 -57z"/>
<path d="M910 4217 l0 -1262 215 -215 215 -214 45 44 c25 24 45 49 45 55 0 5
-99 109 -220 230 l-220 220 0 365 0 365 225 225 225 225 0 -587 c0 -575 0
-587 20 -593 31 -10 60 -54 60 -91 0 -23 -9 -44 -29 -66 -24 -27 -36 -33 -71
-33 -35 0 -47 6 -71 33 -17 19 -29 44 -29 60 0 35 33 88 59 97 21 6 21 9 21
543 l0 537 -185 -186 -185 -185 0 -345 0 -344 220 -220 c120 -120 223 -216
227 -212 9 10 202 -183 197 -197 -2 -6 72 -87 165 -180 167 -167 169 -168 192
-152 16 11 44 16 87 16 84 0 107 -18 194 -149 l69 -105 -7 55 c-9 70 -25 90
-297 364 -180 181 -224 232 -251 285 -134 264 -226 848 -255 1617 l-9 232 -55
103 c-31 57 -63 112 -71 123 -14 19 -15 15 -16 -45 l0 -65 -205 -205 -205
-205 0 80 0 80 201 201 c189 189 200 203 189 224 -12 22 -19 15 -201 -166
l-189 -189 0 80 0 80 160 160 c151 151 160 162 146 180 -14 19 -22 13 -160
-125 l-146 -145 0 85 0 85 114 114 c100 100 113 116 103 132 -11 17 -22 9
-114 -83 l-103 -103 0 85 0 86 69 68 c60 60 68 71 58 87 -11 17 -17 14 -69
-38 l-58 -57 0 84 c0 70 3 87 20 105 22 24 17 60 -6 51 -9 -4 -14 2 -14 16 0
18 -84 148 -96 148 -2 0 -4 -568 -4 -1263z m305 -86 l-205 -206 0 80 0 80 203
203 202 202 3 -77 3 -77 -206 -205z"/>
<path d="M2716 5238 c-2 -13 -14 -76 -26 -142 -55 -313 -174 -533 -304 -568
l-46 -12 0 -331 1 -330 50 55 c104 113 244 353 312 535 72 192 123 430 134
626 l6 118 -35 35 c-43 43 -85 49 -92 14z"/>
<path d="M3125 4868 c-25 -264 -110 -572 -201 -735 -74 -133 -211 -243 -301
-243 l-33 0 0 -331 0 -332 26 48 c50 95 130 200 235 310 58 60 118 131 133
157 95 163 184 502 241 927 21 151 22 178 11 206 -16 37 -51 65 -82 65 -19 0
-22 -7 -29 -72z"/>
<path d="M260 4770 c-19 -193 -17 -561 4 -757 41 -382 122 -713 259 -1063 64
-163 198 -439 282 -578 l50 -82 3 772 2 773 -290 290 -290 290 -2 250 -3 250
-15 -145z"/>
<path d="M6926 4823 c-66 -25 -127 -53 -135 -63 -17 -18 -99 -51 -138 -56 -28
-3 -194 -132 -201 -156 -5 -21 -103 -98 -123 -98 -8 0 -19 4 -24 9 -14 13
-372 20 -384 8 -12 -12 -191 -9 -207 4 -18 15 -379 25 -388 11 -5 -8 -40 -12
-98 -12 l-92 0 -178 177 -178 177 0 -271 0 -271 33 -11 c38 -13 81 -55 91 -88
4 -12 15 -24 24 -27 20 -6 290 -66 297 -66 3 0 5 21 5 46 l0 47 51 -5 c59 -6
96 -30 124 -81 20 -37 26 -40 117 -52 l47 -6 3 48 3 48 40 3 c52 3 103 -24
127 -69 20 -38 49 -47 146 -48 l52 -1 0 56 0 57 49 -5 c57 -6 96 -28 119 -68
14 -24 21 -27 56 -23 110 11 105 8 108 66 2 41 7 53 21 55 38 8 89 -10 125
-43 l38 -33 65 15 66 16 7 111 c3 61 6 155 6 210 l0 98 60 -4 c44 -3 66 -10
83 -26 26 -25 49 -27 113 -11 l44 11 0 50 0 51 51 -5 c30 -3 62 -14 80 -27
l29 -22 0 161 c0 88 -3 160 -7 159 -5 -1 -62 -21 -127 -46z"/>
<path d="M3536 4568 c-45 -411 -137 -799 -251 -1053 -103 -229 -257 -381 -406
-401 l-49 -7 0 -325 c0 -179 2 -323 4 -321 2 2 42 56 89 120 88 121 278 361
404 511 41 48 85 113 99 143 79 180 165 670 219 1247 14 151 14 171 0 198 -16
32 -43 50 -73 50 -17 0 -20 -16 -36 -162z"/>
<path d="M7496 4688 c-3 -24 -8 -135 -11 -248 -16 -603 -100 -1211 -200 -1453
-15 -34 -42 -106 -60 -161 -51 -146 -70 -172 -199 -275 -108 -84 -321 -266
-446 -380 l-55 -50 28 -28 c20 -20 31 -25 41 -18 8 6 92 81 187 168 183 169
370 329 511 439 74 58 91 76 117 132 110 229 177 765 197 1572 7 281 5 300
-35 331 -9 7 -28 13 -43 13 -24 0 -27 -4 -32 -42z"/>
<path d="M7236 4587 c-3 -50 -8 -173 -11 -272 -25 -759 -131 -1355 -277 -1558
-13 -17 -43 -72 -68 -122 -43 -86 -50 -94 -139 -163 -105 -80 -371 -305 -367
-309 2 -2 28 -8 59 -13 l56 -11 153 137 c84 75 226 195 316 267 180 144 194
164 241 322 88 298 151 947 151 1557 l0 188 -27 29 c-16 16 -40 32 -55 35
l-26 6 -6 -93z"/>
<path d="M6930 4453 c0 -242 -34 -727 -71 -1013 -41 -326 -114 -609 -187 -728
-43 -71 -53 -89 -96 -184 -30 -66 -43 -83 -97 -125 -35 -26 -115 -91 -178
-143 l-116 -95 63 -3 63 -3 77 68 c104 93 240 206 341 284 95 73 124 119 165
261 84 290 127 694 146 1353 8 289 7 352 -4 380 -16 37 -42 55 -80 55 l-26 0
0 -107z"/>
<path d="M8097 4432 c-83 -83 -97 -102 -97 -130 0 -22 5 -32 15 -32 13 0 15
-22 15 -140 0 -118 -2 -140 -15 -140 -11 0 -15 -12 -15 -45 l0 -45 -165 0
-165 0 0 -737 0 -738 22 35 c41 68 184 366 227 475 105 266 199 602 208 743
l6 82 -99 0 -99 0 -28 -35 c-24 -31 -33 -35 -73 -35 -37 0 -51 5 -76 30 -27
28 -30 36 -25 73 8 56 43 87 99 87 34 0 46 -6 74 -35 l33 -35 110 0 c61 0 111
3 111 8 0 4 7 59 15 122 14 105 34 590 24 590 -3 0 -48 -44 -102 -98z"/>
<path d="M6636 4364 c-24 -554 -40 -767 -77 -1044 -52 -385 -125 -641 -218
-759 -16 -20 -39 -61 -52 -91 -40 -96 -65 -126 -181 -216 l-113 -89 63 -3 c58
-3 66 0 100 28 20 17 110 89 198 161 154 124 163 134 192 197 112 243 181 795
198 1582 l7 305 -24 28 c-13 15 -38 30 -55 33 l-32 6 -6 -138z"/>
<path d="M4147 4288 c-21 -610 -156 -1169 -351 -1462 -93 -139 -140 -176 -481
-384 l-310 -189 -3 -49 c-3 -45 0 -52 33 -84 l35 -34 0 -133 0 -133 113 1 112
0 78 100 c58 75 77 107 77 130 0 36 56 99 88 99 13 0 101 81 242 223 198 198
226 230 255 292 120 256 203 786 234 1500 10 212 6 240 -36 277 -11 10 -33 20
-50 24 l-30 6 -6 -184z"/>
<path d="M1665 4270 c41 -356 72 -564 111 -737 32 -147 77 -287 106 -335 19
-30 296 -374 344 -427 33 -36 -144 545 -229 754 -22 55 -56 117 -74 139 -63
76 -141 265 -193 475 -12 46 -32 105 -46 130 l-24 46 5 -45z"/>
<path d="M4754 3942 c-1 -313 -12 -496 -45 -727 -54 -377 -154 -672 -284 -838
-26 -33 -92 -92 -155 -140 l-110 -82 222 -3 223 -3 23 28 c87 105 166 367 206
688 33 260 40 417 41 863 l0 454 -33 29 c-19 17 -44 29 -60 29 l-27 0 -1 -298z"/>
<path d="M1632 4175 c0 -16 2 -22 5 -12 2 9 2 23 0 30 -3 6 -5 -1 -5 -18z"/>
<path d="M5270 3926 c0 -753 -88 -1412 -224 -1688 l-34 -68 78 0 c44 0 82 -4
85 -10 3 -5 15 -10 25 -10 21 0 37 46 64 180 63 312 116 1035 116 1573 l0 179
-29 29 c-17 17 -40 29 -55 29 l-26 0 0 -214z"/>
<path d="M1641 4070 c-1 -67 14 -281 35 -490 41 -416 120 -784 205 -953 22
-43 65 -92 171 -195 77 -75 183 -183 234 -239 84 -91 93 -99 88 -70 -4 18 -26
132 -50 254 -24 123 -44 225 -44 228 0 3 -23 29 -51 57 -68 68 -133 157 -174
238 -18 36 -70 110 -115 164 -47 55 -95 126 -111 162 -56 123 -116 393 -164
734 -16 116 -23 149 -24 110z"/>
<path d="M6310 4078 c0 -24 -5 -131 -10 -238 -24 -469 -75 -850 -147 -1100
-31 -109 -101 -255 -142 -299 -17 -18 -46 -68 -63 -110 -21 -52 -46 -91 -78
-123 l-47 -48 55 0 c53 0 57 2 151 77 53 42 114 91 136 109 102 80 175 348
219 804 22 220 36 504 36 727 l0 191 -31 26 c-17 14 -41 26 -55 26 -22 0 -24
-4 -24 -42z"/>
<path d="M5606 3898 c-31 -912 -143 -1551 -299 -1715 l-31 -33 121 0 121 0 26
73 c35 98 51 162 76 290 58 307 100 870 100 1340 l0 198 -26 24 c-15 14 -39
25 -54 25 l-27 0 -7 -202z"/>
<path d="M5976 3988 c-3 -57 -8 -168 -11 -248 -13 -312 -54 -698 -100 -925
-61 -301 -138 -476 -239 -546 -21 -14 -41 -40 -51 -65 l-15 -41 44 -44 44 -45
27 34 c15 19 42 40 59 47 53 22 124 83 151 129 52 88 104 285 139 526 35 245
66 729 66 1048 l0 174 -29 29 c-17 16 -40 29 -54 29 -25 0 -25 -2 -31 -102z"/>
<path d="M1821 3957 c-1 -12 69 -181 81 -192 5 -5 1 13 -10 40 -29 73 -70 161
-71 152z"/>
<path d="M7803 3840 c-27 -11 -39 -53 -25 -85 26 -57 112 -34 112 29 0 48 -41
74 -87 56z"/>
<path d="M7612 3441 c-29 -273 -87 -532 -148 -658 -33 -69 -41 -77 -180 -188
-172 -138 -439 -371 -506 -443 l-48 -51 0 -271 c0 -148 2 -270 4 -270 2 0 36
49 76 109 69 106 71 111 56 133 -20 29 -20 51 0 91 21 41 31 47 77 47 l37 0 0
77 0 78 325 325 325 325 -2 410 c-3 402 -3 408 -16 286z"/>
<path d="M1392 3038 c-43 -21 -43 -83 1 -108 24 -13 30 -13 55 0 68 39 16 142
-56 108z"/>
<path d="M910 2730 l0 -155 228 -227 c142 -142 237 -229 254 -233 43 -11 105
-71 132 -130 26 -53 26 -57 26 -289 0 -161 3 -237 11 -242 8 -4 9 1 4 16 -5
17 13 52 88 164 l95 142 -20 27 c-22 31 -20 54 12 105 18 29 24 32 67 32 l48
0 -175 175 c-96 96 -179 173 -185 171 -14 -5 -204 184 -199 198 2 6 -84 99
-191 206 l-195 195 0 -155z"/>
<path d="M910 2354 c0 -138 2 -154 21 -178 20 -25 23 -26 133 -26 85 0 117 -4
134 -16 13 -9 37 -14 57 -12 l35 3 -190 190 -190 190 0 -151z"/>
<path d="M1585 2380 l-50 -50 182 -182 c204 -204 184 -196 235 -101 l23 43
-170 170 -170 170 -50 -50z"/>
<path d="M7481 2276 c-134 -134 -142 -145 -123 -155 12 -6 29 -25 39 -41 9
-17 21 -30 25 -30 4 0 52 68 108 150 79 119 100 158 100 185 0 19 -1 35 -3 35
-1 0 -67 -65 -146 -144z"/>
<path d="M4990 2135 c-9 -11 -33 -15 -89 -15 -68 0 -80 -3 -99 -23 -21 -22
-22 -33 -22 -189 0 -152 -2 -166 -20 -183 -17 -15 -20 -31 -20 -105 0 -74 3
-90 20 -105 17 -15 20 -31 20 -95 0 -67 3 -79 23 -98 23 -22 27 -22 398 -22
l376 0 21 23 c19 20 22 35 22 103 0 75 -2 82 -28 107 l-28 27 -264 2 c-243 3
-265 4 -268 21 -3 16 14 17 256 17 257 0 259 0 280 23 19 20 22 35 22 103 0
75 -2 82 -28 107 l-28 27 -239 3 -240 2 261 3 c258 2 261 2 282 25 19 20 22
35 22 103 0 71 -3 83 -23 102 -22 21 -32 22 -218 22 -156 0 -199 3 -215 15
-27 20 -157 21 -174 0z m160 -50 c0 -13 30 -15 210 -15 l210 0 0 -75 0 -75
-280 0 -280 0 0 -55 0 -55 265 0 265 0 0 -80 0 -80 -280 0 -280 0 0 -55 c0
-42 3 -55 15 -55 8 0 15 -7 15 -15 0 -13 38 -15 280 -15 l280 0 0 -80 0 -80
-370 0 -370 0 0 90 c0 83 -1 90 -20 90 -19 0 -20 7 -20 90 0 83 1 90 20 90 19
0 20 7 20 180 l0 180 85 0 c67 0 87 3 91 15 5 11 23 15 75 15 55 0 69 -3 69
-15z"/>
<path d="M2050 2115 c-7 -8 -18 -15 -25 -15 -7 0 -39 -40 -70 -90 l-57 -90
-64 0 -65 0 -19 -42 -19 -43 23 -29 22 -29 -97 -144 c-63 -93 -95 -150 -92
-162 3 -11 -7 -37 -22 -59 l-27 -41 22 -36 22 -35 94 0 c53 0 104 5 114 10 10
6 40 37 65 71 38 48 46 65 40 86 -9 39 105 208 154 229 20 8 43 24 52 36 17
21 18 21 67 -55 45 -69 50 -81 45 -117 -5 -35 -2 -45 22 -71 16 -16 39 -29 51
-29 16 0 33 -18 65 -67 24 -38 51 -73 59 -80 10 -8 55 -12 130 -13 l115 0 19
34 c10 19 16 42 13 50 -12 31 -149 227 -162 232 -7 3 -13 13 -13 22 2 24 -267
431 -305 464 -27 23 -42 28 -88 28 -38 0 -61 -5 -69 -15z m270 -257 c80 -121
147 -225 148 -230 2 -4 -43 -8 -101 -8 l-104 0 -69 110 c-38 60 -72 109 -76
110 -3 0 -16 -16 -28 -35 -31 -50 -48 -65 -74 -65 -18 0 -41 -27 -109 -130
-72 -108 -84 -130 -67 -130 11 0 20 -3 20 -6 0 -3 -21 -32 -46 -65 l-45 -59
-90 0 c-49 0 -89 2 -89 5 0 2 13 26 30 52 20 31 26 49 19 54 -14 8 166 279
185 279 13 0 56 57 56 74 0 3 -17 6 -39 6 -30 0 -42 5 -55 25 l-16 25 77 0 78
0 67 105 67 105 58 0 58 0 145 -222z m248 -380 c38 -57 72 -109 76 -115 6 -10
-17 -13 -101 -13 l-108 0 -50 80 c-48 77 -51 80 -87 80 -35 0 -38 2 -38 29 0
37 6 38 137 40 l103 1 68 -102z"/>
<path d="M3917 2102 c-25 -26 -27 -34 -27 -123 0 -87 2 -97 23 -117 20 -19 35
-22 115 -22 50 0 94 5 97 10 3 6 17 10 31 10 24 0 24 -1 24 -88 0 -81 -2 -90
-25 -112 -20 -19 -25 -33 -25 -75 0 -42 5 -56 25 -75 22 -21 25 -32 25 -95 0
-62 3 -74 23 -93 21 -19 35 -22 118 -22 91 0 96 1 122 28 25 26 27 35 27 112
0 77 -2 86 -27 112 l-27 28 27 28 c26 27 27 33 27 130 l0 102 98 0 c90 0 100
2 120 23 19 21 22 35 22 118 0 91 -1 96 -28 122 l-28 27 -355 0 -355 0 -27
-28z m743 -122 l0 -90 -120 0 -120 0 0 -130 0 -130 -25 0 c-23 0 -25 -3 -25
-50 0 -47 2 -50 25 -50 25 0 25 -1 25 -90 l0 -90 -95 0 -95 0 0 95 c0 95 0 95
-25 95 -23 0 -25 3 -25 50 0 47 2 50 25 50 l25 0 0 119 c0 66 -3 126 -6 135
-4 12 -20 16 -55 16 -27 0 -49 -4 -49 -10 0 -6 -37 -10 -90 -10 l-90 0 0 90 0
90 360 0 360 0 0 -90z"/>
<path d="M4535 2040 c3 -5 24 -10 46 -10 21 0 39 5 39 10 0 6 -21 10 -46 10
-27 0 -43 -4 -39 -10z"/>
<path d="M4264 1780 c0 -63 1 -89 3 -57 2 31 2 83 0 115 -2 31 -3 5 -3 -58z"/>
<path d="M5707 2102 l-27 -28 0 -230 c0 -218 1 -232 20 -249 15 -13 20 -31 20
-65 0 -34 -5 -52 -20 -65 -31 -28 -28 -101 7 -137 25 -27 31 -28 118 -28 87 0
93 1 118 28 25 26 26 33 29 152 l3 125 98 3 c68 2 97 -1 97 -9 0 -23 84 -158
105 -169 13 -7 31 -30 41 -52 29 -65 57 -78 166 -78 l94 0 22 39 c12 21 20 45
17 53 -3 8 1 21 10 28 8 7 15 22 15 34 0 30 -50 76 -82 76 -19 0 -29 8 -38 29
-6 17 -10 34 -7 38 3 5 2 15 -2 22 -6 9 5 25 32 50 57 51 77 100 77 191 0 41
-5 92 -11 114 -14 51 -91 128 -145 144 -29 8 -143 12 -386 12 l-344 0 -27 -28z
m763 -41 c19 -10 48 -35 65 -55 27 -34 30 -46 34 -122 4 -110 -19 -162 -90
-202 l-48 -28 19 -30 c11 -16 18 -36 15 -44 -2 -8 6 -33 18 -55 19 -34 28 -40
60 -43 32 -3 37 -7 37 -28 0 -17 -5 -24 -20 -24 -24 0 -25 -9 -5 -36 30 -40
21 -45 -77 -42 l-93 3 -29 54 c-16 29 -36 56 -46 58 -9 3 -36 37 -58 76 -32
55 -38 73 -28 77 12 4 12 8 1 23 -11 16 -28 17 -156 15 l-144 -3 -3 -152 -3
-153 -94 0 -95 0 0 50 c0 43 3 50 20 50 18 0 20 7 20 85 0 78 -2 85 -20 85
-19 0 -20 7 -20 230 l0 230 353 0 c324 0 355 -1 387 -19z"/>
<path d="M5774 1810 c0 -85 2 -120 3 -77 2 42 2 112 0 155 -1 42 -3 7 -3 -78z"/>
<path d="M5970 1910 c0 -15 -7 -20 -25 -20 -22 0 -25 -4 -25 -40 l0 -40 211 0
c126 0 218 4 230 10 22 12 27 78 7 98 -9 9 -68 12 -205 12 -186 0 -193 -1
-193 -20z m360 -40 c0 -6 -62 -10 -165 -10 -103 0 -165 4 -165 10 0 6 62 10
165 10 103 0 165 -4 165 -10z"/>
<path d="M7164 2102 c-18 -15 -55 -62 -83 -104 l-52 -78 -63 0 -64 0 -16 -41
c-15 -38 -15 -43 -1 -65 8 -13 19 -24 24 -24 5 0 -36 -66 -90 -147 -65 -96
-97 -153 -94 -165 4 -9 -6 -35 -21 -58 l-27 -40 18 -40 18 -40 102 0 c66 0
107 4 117 13 9 6 38 41 63 76 39 52 45 67 37 85 -7 17 2 38 59 122 55 83 73
102 98 107 16 4 38 18 47 32 l16 25 55 -86 c42 -64 53 -88 44 -97 -20 -20 -12
-52 22 -85 18 -18 42 -32 52 -32 14 0 35 -23 65 -70 25 -38 54 -74 65 -80 12
-6 65 -10 129 -8 l108 3 20 35 21 35 -77 118 c-43 64 -83 120 -90 124 -7 5
-15 17 -18 28 -8 32 -277 438 -306 462 -21 18 -40 22 -87 22 -51 0 -65 -4 -91
-27z m281 -224 c72 -110 138 -213 148 -229 l19 -29 -105 0 -105 0 -75 116 -74
115 -33 -50 c-26 -41 -38 -51 -59 -51 -25 0 -39 -16 -114 -130 -48 -71 -87
-132 -87 -134 0 -3 9 -6 19 -8 17 -3 14 -11 -27 -65 l-46 -63 -94 0 c-72 0
-92 3 -86 13 4 6 20 31 36 54 22 33 25 42 13 45 -20 4 168 288 190 288 9 0 24
15 35 33 l20 32 -41 5 c-29 3 -46 12 -57 28 l-14 22 75 0 75 0 68 105 68 105
61 0 60 -1 130 -201z m271 -415 l73 -113 -107 0 -107 0 -54 85 c-51 79 -57 85
-88 85 -28 0 -33 3 -33 24 0 32 12 34 139 32 l104 -1 73 -112z"/>
<path d="M662 2097 c-24 -25 -31 -100 -11 -113 8 -4 8 -9 0 -17 -7 -7 -11 -70
-11 -173 0 -98 -4 -165 -10 -169 -5 -3 -10 -19 -10 -35 0 -16 5 -32 10 -35 6
-3 10 -51 10 -109 0 -157 -27 -146 368 -146 348 0 357 1 429 56 45 34 87 117
73 144 -5 10 -10 49 -10 87 0 38 -6 80 -14 95 -13 24 -11 31 13 80 50 102 21
239 -65 304 -27 21 -41 24 -126 24 -67 0 -100 4 -114 15 -15 12 -65 14 -265
15 -244 0 -246 0 -267 -23z m518 -42 c0 -12 19 -15 108 -15 100 0 110 -2 129
-22 38 -43 57 -91 57 -148 -1 -60 -13 -90 -52 -132 l-26 -28 27 -28 c24 -25
27 -35 27 -104 0 -48 4 -78 11 -80 8 -3 6 -15 -6 -38 -24 -49 -44 -69 -87 -91
-34 -17 -63 -19 -358 -19 l-320 0 0 110 c0 67 -4 110 -10 110 -5 0 -10 11 -10
25 0 14 5 25 10 25 6 0 10 61 10 164 l0 165 38 3 c29 2 37 7 37 23 0 16 -8 21
-37 23 -36 3 -38 5 -38 38 l0 34 245 0 c211 0 245 -2 245 -15z"/>
<path d="M870 1870 c0 -19 9 -40 25 -55 24 -25 27 -25 190 -25 158 0 205 7
205 30 0 6 -7 10 -15 10 -8 0 -15 7 -15 15 0 8 9 15 20 15 23 0 26 10 8 28 -9
9 -70 12 -215 12 l-203 0 0 -30z m262 -27 c-40 -2 -103 -2 -140 0 -37 2 -4 3
73 3 77 0 107 -2 67 -3z"/>
<path d="M877 1634 c-4 -4 -7 -18 -7 -31 0 -20 5 -23 35 -23 31 0 35 -3 35
-25 0 -17 -6 -25 -17 -25 -17 -1 -17 -1 0 -11 11 -6 86 -9 198 -7 176 3 181 4
200 27 24 29 24 43 0 72 -19 24 -22 24 -228 27 -115 2 -212 0 -216 -4z m341
-61 c-43 -2 -113 -2 -155 0 -43 1 -8 3 77 3 85 0 120 -2 78 -3z"/>
<path d="M2782 2097 c-21 -22 -22 -32 -22 -223 l0 -201 -25 -23 c-19 -18 -25
-34 -25 -65 0 -31 6 -47 25 -65 22 -21 25 -31 25 -100 0 -67 3 -79 23 -98 21
-20 34 -22 123 -22 92 0 102 2 122 23 19 20 22 35 22 112 0 68 -4 93 -17 107
-16 17 -8 18 227 18 235 0 243 -1 227 -18 -13 -14 -17 -39 -17 -103 0 -80 2
-87 28 -112 26 -25 34 -27 123 -27 146 0 139 -15 139 306 l0 260 30 29 c23 22
30 37 30 68 0 32 -8 48 -51 98 l-52 59 -95 0 c-90 0 -98 -2 -124 -27 l-28 -27
0 -138 0 -138 -210 0 -210 0 0 143 c0 137 -1 144 -23 165 -21 20 -34 22 -123
22 -92 0 -102 -2 -122 -23z m218 -192 l0 -165 263 2 262 3 3 163 2 162 90 0
90 0 0 -30 c0 -27 3 -30 30 -30 28 0 30 -2 30 -39 0 -36 -3 -40 -27 -43 l-28
-3 -3 -287 -2 -288 -90 0 -90 0 0 90 c0 83 1 90 20 90 18 0 20 6 19 53 0 28
-3 46 -6 40 -4 -10 -75 -13 -309 -13 l-304 0 0 -40 c0 -36 3 -40 25 -40 25 0
25 -1 25 -90 l0 -90 -95 0 -95 0 0 95 c0 88 -1 95 -20 95 -17 0 -20 7 -20 45
0 38 3 45 20 45 19 0 20 7 20 220 l0 220 95 0 95 0 0 -165z"/>
<path d="M2844 1855 c0 -104 2 -146 3 -92 2 54 2 139 0 190 -1 51 -3 7 -3 -98z"/>
<path d="M3670 1850 c0 -113 4 -180 10 -180 6 0 10 67 10 180 0 113 -4 180
-10 180 -6 0 -10 -67 -10 -180z"/>
<path d="M6661 2016 c-22 -23 -23 -32 -22 -132 2 -97 0 -112 -24 -160 -14 -29
-37 -62 -50 -72 -25 -20 -36 -67 -21 -90 4 -7 17 -12 30 -12 30 0 86 -59 86
-91 0 -29 -32 -121 -55 -155 -15 -23 -21 -24 -121 -24 -122 0 -149 12 -184 81
-11 21 -31 46 -43 54 -13 8 -43 49 -66 90 -24 41 -48 75 -53 75 -5 0 -34 -7
-64 -16 l-54 -15 0 -78 0 -77 149 -147 c131 -128 150 -152 153 -183 l3 -35
122 83 c189 129 246 176 238 196 -30 71 -30 72 -10 110 19 35 20 51 15 330
l-5 294 -24 -26z"/>
<path d="M5648 2024 c-5 -4 -8 -32 -8 -63 0 -39 3 -52 11 -44 5 5 9 34 7 62
-2 29 -6 49 -10 45z"/>
<path d="M4740 1922 c0 -31 -7 -45 -38 -75 -34 -33 -43 -37 -91 -37 -43 0 -61
-5 -88 -26 -32 -24 -33 -28 -33 -91 0 -55 -4 -71 -22 -90 l-21 -23 21 -23 c12
-13 22 -31 22 -41 0 -16 2 -16 22 -2 12 8 72 65 135 126 l113 111 0 105 c0 63
-4 104 -10 104 -5 0 -10 -17 -10 -38z"/>
<path d="M3823 1890 l-33 -39 0 -207 0 -207 178 174 c113 111 178 182 180 197
3 21 1 22 -17 13 -11 -6 -60 -11 -110 -11 -85 0 -93 2 -122 28 -17 15 -34 42
-37 59 l-7 32 -32 -39z"/>
<path d="M5634 1848 c-18 -20 -20 -32 -15 -87 6 -62 6 -63 24 -43 14 16 17 33
15 87 l-3 67 -21 -24z"/>
<path d="M2057 1676 c-42 -19 -141 -172 -139 -213 2 -25 -8 -47 -45 -97 -26
-35 -59 -71 -72 -79 l-24 -14 74 -56 c73 -55 74 -56 94 -37 26 24 87 50 120
50 l25 0 0 230 c0 127 -1 230 -2 229 -2 0 -16 -6 -31 -13z"/>
<path d="M2140 1450 l0 -220 40 0 40 0 0 118 c-1 87 -4 122 -15 136 -9 11 -15
41 -15 69 0 33 -7 61 -21 83 -11 19 -23 34 -25 34 -2 0 -4 -99 -4 -220z"/>
<path d="M5606 1631 l-39 -40 32 -27 c18 -15 37 -37 41 -48 6 -14 9 9 9 67 1
48 0 87 -2 87 -2 0 -20 -18 -41 -39z"/>
<path d="M4603 1546 l-113 -108 0 -53 c0 -48 -3 -56 -35 -84 -20 -17 -47 -31
-60 -31 -25 0 -25 -1 -25 -87 l0 -87 193 189 c105 105 194 191 196 192 3 2 -5
13 -17 26 -16 17 -22 38 -24 86 l-3 65 -112 -108z"/>
<path d="M3070 1513 c0 -29 2 -29 19 5 10 18 9 22 -4 22 -10 0 -15 -9 -15 -27z"/>
<path d="M3340 1214 l0 -326 56 78 c31 44 91 121 133 173 118 145 113 131 46
131 -52 0 -60 3 -91 34 l-34 34 0 101 0 101 -55 0 -55 0 0 -326z"/>
<path d="M4013 1393 c-112 -88 -123 -99 -123 -129 l0 -32 98 -4 c87 -3 103 -6
139 -30 l40 -26 49 49 c40 41 45 49 27 49 -11 0 -37 18 -57 40 -34 38 -36 44
-36 110 0 39 -3 70 -7 69 -5 0 -63 -44 -130 -96z"/>
<path d="M2260 1335 l0 -105 48 0 c41 0 53 -5 80 -33 25 -26 32 -41 32 -74 0
-34 -6 -46 -38 -75 l-39 -35 28 -31 c15 -17 34 -50 40 -74 12 -41 24 -57 42
-58 9 0 9 90 0 278 l-6 143 -31 13 c-21 9 -45 36 -76 84 -28 45 -51 72 -62 72
-16 0 -18 -11 -18 -105z"/>
<path d="M5648 1434 c-5 -4 -8 -28 -8 -54 0 -65 -36 -100 -103 -100 l-47 0 0
-320 c0 -176 2 -320 5 -320 3 0 66 23 140 51 l135 51 0 212 0 213 25 23 c17
16 25 34 25 57 0 33 0 33 -48 33 -41 0 -53 5 -79 33 -25 25 -32 42 -35 80 -2
27 -6 45 -10 41z"/>
<path d="M4748 1414 c-5 -4 -8 -46 -8 -93 l0 -85 30 29 c30 29 30 29 11 49
-12 12 -21 39 -23 64 -2 24 -6 40 -10 36z"/>
<path d="M4520 1195 l-175 -175 178 71 177 71 0 104 c0 57 -1 104 -3 104 -1 0
-81 -79 -177 -175z"/>
<path d="M5963 1314 c-24 -26 -39 -34 -67 -34 -32 0 -36 -3 -36 -25 l0 -25
132 0 132 0 -59 60 c-33 33 -62 59 -65 59 -3 -1 -19 -17 -37 -35z"/>
<path d="M4256 1211 c-65 -66 -68 -71 -58 -98 18 -49 21 -77 13 -115 -5 -21
-8 -38 -6 -38 2 0 32 12 67 28 l63 27 -5 133 -5 133 -69 -70z"/>
<path d="M4785 1228 c-28 -29 -38 -42 -22 -28 18 16 45 26 85 31 31 4 77 16
102 27 l45 21 -80 0 -81 1 -49 -52z"/>
<path d="M5130 1257 l-65 -22 62 -5 c85 -7 113 -33 113 -105 0 -39 -5 -56 -20
-70 l-20 -18 20 -22 c15 -15 20 -35 20 -72 0 -37 -5 -54 -20 -68 l-20 -18 20
-22 c15 -16 20 -35 20 -72 0 -45 -4 -54 -31 -77 -30 -26 -31 -26 -219 -26
-188 0 -189 0 -219 26 l-31 26 0 199 c0 109 -2 199 -4 199 -2 0 -107 -42 -232
-94 l-229 -93 -3 -247 -2 -246 32 0 c68 0 318 21 433 35 142 18 381 65 518
102 l97 26 0 343 0 344 -77 0 c-53 -1 -99 -8 -143 -23z"/>
<path d="M5390 946 c0 -353 0 -355 43 -324 16 12 17 41 15 333 l-3 320 -27 3
-28 3 0 -335z"/>
<path d="M2515 828 c0 -244 -4 -491 -8 -551 l-8 -107 44 0 44 0 7 62 c11 110
19 697 11 871 l-7 167 -42 0 -41 0 0 -442z"/>
<path d="M2010 1189 c-32 -13 -68 -47 -86 -81 -22 -42 -18 -119 9 -158 43 -65
67 -74 190 -80 158 -7 140 -24 -30 -28 -125 -2 -139 -5 -160 -24 -31 -29 -30
-77 0 -106 22 -21 33 -22 184 -22 150 0 162 1 193 23 58 39 75 71 75 142 0 69
-15 99 -69 139 -23 17 -47 22 -139 26 -158 7 -139 24 30 28 125 2 139 5 160
24 31 29 30 77 0 106 -22 21 -32 22 -178 21 -85 0 -165 -5 -179 -10z m330 -69
l0 -30 -149 0 c-161 0 -173 -4 -173 -56 0 -49 22 -59 148 -64 115 -5 116 -5
145 -38 49 -54 35 -149 -27 -182 -20 -11 -64 -15 -178 -15 l-151 0 -3 28 -3
27 138 0 c154 0 186 9 191 52 7 58 -7 65 -130 69 -118 4 -142 12 -175 58 -19
28 -19 104 1 133 30 42 53 47 214 48 l152 0 0 -30z"/>
<path d="M2992 1177 c-21 -22 -22 -31 -22 -233 0 -207 0 -211 23 -232 31 -29
77 -29 105 1 21 22 22 31 22 233 0 207 0 211 -23 232 -31 29 -77 29 -105 -1z
m88 -232 l0 -215 -35 0 -35 0 0 215 0 215 35 0 35 0 0 -215z"/>
<path d="M3722 1177 c-21 -22 -22 -33 -22 -172 0 -119 3 -152 15 -165 14 -15
14 -18 0 -30 -23 -19 -19 -73 8 -98 22 -21 33 -22 181 -22 180 0 212 9 251 69
32 49 38 88 22 141 -11 37 -11 52 1 84 10 31 11 50 2 85 -13 53 -34 81 -81
110 -31 19 -50 21 -195 21 -155 0 -161 -1 -182 -23z m376 -55 c42 -39 52 -94
26 -142 -19 -35 -19 -37 -2 -65 24 -41 23 -85 -5 -126 -32 -48 -71 -58 -229
-58 l-138 -1 0 30 0 30 129 0 c143 0 176 8 193 44 9 20 8 30 -6 51 -16 24 -21
25 -106 25 l-90 0 0 30 0 30 80 0 c73 0 83 3 105 25 29 28 31 42 9 73 -14 21
-22 22 -135 22 l-119 0 0 -120 0 -120 -30 0 -30 0 0 150 0 150 159 0 159 0 30
-28z m-75 -87 c-2 -5 -39 -11 -83 -13 -67 -2 -80 0 -80 13 0 13 13 15 83 13
48 -2 81 -7 80 -13z m0 -180 c-2 -5 -41 -11 -88 -13 -74 -2 -84 -1 -79 13 5
13 21 15 88 13 47 -2 80 -7 79 -13z"/>
<path d="M4782 1177 c-21 -22 -22 -31 -22 -233 0 -275 -19 -254 231 -254 181
0 186 1 207 23 29 31 29 77 -1 105 -21 20 -34 22 -150 22 -106 0 -127 2 -127
15 0 13 21 15 128 15 121 0 130 1 150 23 29 31 29 77 -1 105 -21 20 -34 22
-150 22 -106 0 -127 2 -127 15 0 13 21 15 128 15 121 0 130 1 150 23 29 31 29
77 -1 105 -22 21 -32 22 -208 22 -181 0 -186 -1 -207 -23z m388 -57 l0 -30
-150 0 -151 0 3 -147 3 -148 148 -3 147 -3 0 -29 0 -30 -180 0 -180 0 0 210 0
210 180 0 180 0 0 -30z m0 -180 l0 -30 -120 0 -120 0 0 30 0 30 120 0 120 0 0
-30z"/>
<path d="M5817 1173 l-27 -29 0 -201 c0 -188 1 -202 21 -227 27 -35 86 -36
117 -3 18 19 22 35 22 92 l0 69 94 -92 93 -92 55 0 c55 0 55 0 70 39 l16 39
-54 53 -53 53 28 17 c98 59 105 207 13 277 -35 27 -38 27 -201 30 l-166 3 -28
-28z m379 -57 c29 -29 34 -41 34 -81 0 -40 -5 -52 -34 -81 -23 -23 -47 -35
-76 -40 l-42 -7 81 -81 c45 -45 81 -85 81 -89 0 -4 -17 -7 -38 -7 -34 0 -46 9
-157 120 l-120 120 96 0 c82 0 100 3 123 21 30 23 33 54 9 81 -14 15 -32 18
-135 18 l-118 0 0 -180 0 -180 -30 0 -30 0 0 210 0 210 161 0 161 0 34 -34z
m-78 -83 c3 -10 -18 -13 -82 -13 -71 0 -86 3 -86 15 0 13 14 15 82 13 54 -2
83 -7 86 -15z"/>
<path d="M4210 847 c0 -42 -6 -63 -30 -100 -16 -26 -30 -53 -30 -60 0 -7 -16
-28 -35 -47 -35 -34 -35 -34 -35 -122 l0 -88 70 0 70 0 0 235 c0 129 -2 235
-5 235 -3 0 -5 -24 -5 -53z"/>
<path d="M3628 628 l-88 -41 0 -48 c0 -55 -12 -50 170 -73 163 -21 210 -24
210 -17 0 4 -27 33 -60 66 -55 54 -60 63 -60 102 0 41 -1 43 -29 43 -16 0 -35
2 -43 5 -7 3 -52 -14 -100 -37z"/>
<path d="M3840 627 c0 -27 12 -45 78 -110 80 -79 112 -95 112 -54 0 15 -23 45
-65 87 -42 42 -65 72 -65 87 0 19 -5 23 -30 23 -27 0 -30 -3 -30 -33z"/>
<path d="M3950 642 c0 -10 18 -36 40 -57 l40 -39 0 34 c0 21 8 42 22 57 l21
23 -61 0 c-53 0 -62 -3 -62 -18z"/>
<path d="M3445 538 l-40 -22 30 -7 c59 -13 65 -11 65 21 0 35 -3 36 -55 8z"/>
</g>
</svg>
