<?xml version="1.0" standalone="no"?>
<!DOCTYPE svg PUBLIC "-//W3C//DTD SVG 20010904//EN"
 "http://www.w3.org/TR/2001/REC-SVG-20010904/DTD/svg10.dtd">
<svg version="1.0" xmlns="http://www.w3.org/2000/svg"
 width="1045.000000pt" height="239.000000pt" viewBox="0 0 1045.000000 239.000000"
 preserveAspectRatio="xMidYMid meet">

<g transform="translate(0.000000,239.000000) scale(0.100000,-0.100000)"
fill="#000000" stroke="none">
<path d="M10244 2376 c-93 -41 -117 -171 -45 -240 129 -123 329 58 214 195
-46 54 -109 71 -169 45z m126 -22 c56 -34 76 -107 46 -179 -37 -88 -179 -90
-231 -2 -35 59 -13 151 43 181 36 20 107 20 142 0z"/>
<path d="M10213 2283 c13 -3 17 -15 17 -49 0 -24 5 -44 10 -44 6 0 10 20 10
44 0 34 4 46 18 49 9 3 -3 5 -28 5 -25 0 -37 -2 -27 -5z"/>
<path d="M10295 2247 c-4 -26 -5 -51 -1 -54 3 -4 6 6 6 20 0 34 15 35 33 1 10
-18 16 -23 22 -15 4 7 0 18 -8 24 -8 7 -22 25 -30 42 l-15 30 -7 -48z"/>
<path d="M10371 2264 c-13 -30 -14 -45 -1 -24 10 16 13 11 23 -35 3 -11 5 1 6
27 1 54 -11 68 -28 32z"/>
</g>
</svg>
